# xmcd
#
# Track frame offsets:
#	150
#	15615
#	32602
#	45149
#	59337
#	73015
#	85464
#	99253
#	114921
#	127806
#
# Disc length: 1908 seconds
#
# Revision: 0
# Processed by: cddbd v1.4PL0 Copyright (c) Steve Scherf et al.
# Submitted via: dBpowerAMP V4.0
#
DISCID=7007720a
DTITLE=Danny Allen - Always
DYEAR=1999
DGENRE=
TTITLE0=Always
TTITLE1=You Don't Hear Me
TTITLE2=Buy You Some Business
TTITLE3=I Cheated On You Baby
TTITLE4=My Attitude
TTITLE5=Disadvantaged Cowboy
TTITLE6=Take A Chance
TTITLE7=You Don't Look The Same
TTITLE8=Another Place Another Time
TTITLE9=What Brush
EXTD=
EXTT0=
EXTT1=
EXTT2=
EXTT3=
EXTT4=
EXTT5=
EXTT6=
EXTT7=
EXTT8=
EXTT9=
PLAYORDER=
